<?xml version="1.0" standalone="no"?><!DOCTYPE svg PUBLIC "-//W3C//DTD SVG 1.1//EN" "http://www.w3.org/Graphics/SVG/1.1/DTD/svg11.dtd"><svg t="1723365874229" class="icon" viewBox="0 0 1024 1024" version="1.1" xmlns="http://www.w3.org/2000/svg" p-id="9891" xmlns:xlink="http://www.w3.org/1999/xlink" width="200" height="200"><path d="M876.08888889 2.27555555H147.91111111c-80.09955555 0-145.63555555 65.536-145.63555556 145.63555556v728.17777778c0 80.09955555 65.536 145.63555555 145.63555556 145.63555556h728.17777778c80.09955555 0 145.63555555-65.536 145.63555556-145.63555556V147.91111111c0-80.09955555-65.536-145.63555555-145.63555556-145.63555556z m72.81777778 873.81333334c0 43.69066667-29.12711111 72.81777778-72.81777778 72.81777778H147.91111111c-43.69066667 0-72.81777778-29.12711111-72.81777778-72.81777778V147.91111111c0-43.69066667 29.12711111-72.81777778 72.81777778-72.81777778h728.17777778c43.69066667 0 72.81777778 29.12711111 72.81777778 72.81777778v728.17777778z" fill="#707070" p-id="9892"></path><path d="M541.12711111 599.38133333c-7.28177778 14.56355555-14.56355555 36.40888889-29.12711111 65.536-7.28177778-14.56355555-14.56355555-36.40888889-29.12711111-65.536L315.392 249.856H220.72888889v509.72444445h72.81777778V424.61866667 322.67377778c0 29.12711111 7.28177778 43.69066667 7.28177778 58.25422222l189.32622222 385.93422222h43.69066666l189.32622222-385.93422222c0-14.56355555 0-29.12711111 7.28177778-58.25422222v436.90666667h72.81777778v-509.72444445h-94.66311111L541.12711111 599.38133333z" fill="#707070" p-id="9893"></path></svg>