<?xml version="1.0" standalone="no"?><!DOCTYPE svg PUBLIC "-//W3C//DTD SVG 1.1//EN" "http://www.w3.org/Graphics/SVG/1.1/DTD/svg11.dtd"><svg t="1723816393036" class="icon" viewBox="0 0 1024 1024" version="1.1" xmlns="http://www.w3.org/2000/svg" p-id="15546" xmlns:xlink="http://www.w3.org/1999/xlink" width="200" height="200"><path d="M934.4 906.667H55.467c-17.067 0-32-14.934-32-32s14.933-32 32-32h876.8c17.066 0 32 14.933 32 32s-12.8 32-29.867 32z m-128-552.534c-6.4 0-14.933-2.133-21.333-8.533l-166.4-140.8c-12.8-10.667-14.934-32-4.267-44.8 10.667-12.8 32-14.933 44.8-4.267l166.4 142.934c12.8 10.666 14.933 32 4.267 44.8-6.4 6.4-14.934 10.666-23.467 10.666z" fill="#FFBB12" p-id="15547"></path><path d="M290.133 800c-8.533 0-19.2-4.267-25.6-10.667-12.8-10.666-17.066-27.733-12.8-44.8l61.867-211.2c8.533-25.6 21.333-46.933 38.4-66.133L676.267 87.467c25.6-29.867 68.266-32 96-8.534L883.2 172.8c14.933 12.8 23.467 27.733 23.467 46.933C908.8 238.933 902.4 256 889.6 268.8l-322.133 384c-17.067 19.2-36.267 34.133-57.6 46.933h-2.134l-200.533 96c-4.267 2.134-10.667 4.267-17.067 4.267z m23.467-36.267c0 2.134 0 0 0 0z m-32-25.6s-2.133 0-2.133 2.134l2.133-2.134zM727.467 128c-2.134 0-2.134 0-4.267 2.133L398.933 509.867c-10.666 12.8-19.2 27.733-25.6 44.8l-46.933 160 151.467-72.534c14.933-8.533 27.733-19.2 38.4-32l324.266-381.866c0-2.134 2.134-2.134 2.134-4.267 0 0 0-2.133-2.134-4.267L729.6 125.867c0 2.133 0 2.133-2.133 2.133zM494.933 672z" fill="#543E3E" p-id="15548"></path></svg>