<?xml version="1.0" standalone="no"?><!DOCTYPE svg PUBLIC "-//W3C//DTD SVG 1.1//EN" "http://www.w3.org/Graphics/SVG/1.1/DTD/svg11.dtd"><svg t="1723472319284" class="icon" viewBox="0 0 1024 1024" version="1.1" xmlns="http://www.w3.org/2000/svg" p-id="4146" xmlns:xlink="http://www.w3.org/1999/xlink" width="200" height="200"><path d="M824.5 64H198.3C124 64 63.5 136.2 63.5 225.1v574.1c0 88.8 60.5 161.1 134.8 161.1h626.2c74.3 0 134.8-72.3 134.8-161.1V225.1c0-88.9-60.4-161.1-134.8-161.1z m-626.2 37.5h626.2c54.7 0 99.2 55.4 99.2 123.6v459L761.9 496.5c-6.4-7.4-17.1-8.2-24.4-1.9L490.8 706.7 347.3 426.2c-2.4-4.8-6.7-8.2-11.8-9.4-5-1.2-10.3 0-14.4 3.2l-222 173.4V225.1c0-68.2 44.5-123.6 99.2-123.6zM99.1 799.1v-159L325.8 463l143.8 281.2 89.7 175.4c0.6 1.1 1.3 2.1 2 3.1h-363c-54.7 0-99.2-55.4-99.2-123.6z m725.4 123.6H588.6c4.5-5.7 5.5-13.9 2-20.9L508 740.3l239-205.5 171.1 198.3c1.7 1.9 3.6 3.4 5.7 4.4v61.6c0 68.2-44.5 123.6-99.3 123.6z" p-id="4147"></path><path d="M592.3 308.2a60.9 63.4 0 1 0 121.8 0 60.9 63.4 0 1 0-121.8 0Z" p-id="4148"></path></svg>